<?xml version="1.0" standalone="no"?>
<!DOCTYPE svg PUBLIC "-//W3C//DTD SVG 20010904//EN"
 "http://www.w3.org/TR/2001/REC-SVG-20010904/DTD/svg10.dtd">
<svg version="1.0" xmlns="http://www.w3.org/2000/svg"
 width="400.000000pt" height="400.000000pt" viewBox="0 0 400.000000 400.000000"
 preserveAspectRatio="xMidYMid meet">

<g transform="translate(0.000000,400.000000) scale(0.100000,-0.100000)"
fill="#000000" stroke="none">
<path d="M1683 3529 c-18 -5 -60 -26 -94 -47 -34 -20 -72 -43 -84 -50 -45 -24
-187 -187 -261 -298 -40 -62 -89 -151 -108 -198 -48 -117 -113 -233 -173 -306
-7 -8 -26 -33 -43 -55 -18 -22 -67 -78 -109 -125 -248 -271 -324 -363 -389
-470 -102 -168 -137 -305 -129 -492 l6 -117 -37 -11 c-20 -5 -45 -10 -54 -10
-25 0 -32 -17 -39 -100 -9 -102 -2 -114 76 -128 78 -15 104 -15 157 -1 41 11
47 10 144 -40 289 -147 628 -221 1004 -221 253 0 604 53 793 119 162 56 153
55 209 36 61 -20 276 -31 357 -18 53 8 56 10 79 56 14 26 27 70 30 97 4 41 10
54 37 74 94 72 203 112 400 146 74 12 95 34 95 99 -1 64 -21 87 -110 117 -78
27 -206 106 -275 170 -171 157 -329 258 -446 284 -52 12 -61 18 -117 84 -34
39 -82 91 -107 115 -25 24 -44 49 -42 55 2 6 92 90 200 186 359 321 443 411
476 509 28 87 27 136 -4 176 -20 28 -34 35 -88 44 -328 57 -625 -96 -1036
-535 -107 -114 -120 -123 -213 -139 -21 -4 -53 -4 -72 -1 -62 12 -58 66 13
176 110 169 190 340 222 473 16 64 7 211 -16 258 -35 73 -160 117 -252 88z
m130 -73 c39 -16 60 -45 75 -105 28 -112 -66 -373 -215 -599 -52 -78 -72 -161
-53 -227 15 -52 33 -59 148 -57 129 2 140 8 307 180 264 271 469 423 635 471
25 7 58 17 74 22 47 14 197 10 255 -7 58 -17 78 -45 62 -87 -28 -73 -265 -318
-501 -517 -41 -35 -108 -96 -149 -136 -72 -72 -74 -75 -68 -115 4 -34 16 -51
70 -102 36 -34 90 -92 119 -128 60 -72 68 -98 87 -274 18 -160 -24 -465 -64
-465 -17 0 -57 -53 -89 -121 -14 -32 -32 -61 -39 -66 -15 -12 -144 -54 -269
-87 -280 -77 -658 -106 -914 -71 -226 31 -291 45 -444 95 -158 52 -350 145
-350 170 0 9 -25 45 -55 80 -65 75 -70 95 -69 250 1 96 6 128 28 195 34 99 88
199 156 288 38 51 202 240 265 307 39 41 95 104 125 140 30 36 61 71 68 79 50
52 161 247 198 346 18 50 37 81 130 216 88 127 128 172 205 230 136 104 199
126 272 95z m993 -1506 c70 -32 147 -86 249 -174 78 -69 155 -131 200 -162 44
-30 156 -84 175 -84 21 0 60 -36 60 -56 0 -19 -30 -30 -110 -39 -120 -14 -325
-99 -388 -162 -21 -21 -73 -15 -172 17 -50 17 -100 30 -111 30 -23 0 -23 -13
2 133 18 101 20 148 16 272 -3 94 -11 168 -21 199 -24 77 -17 78 100 26z
m-2437 -686 c43 -46 49 -59 41 -75 -9 -16 -22 -19 -78 -19 -109 0 -112 3 -112
70 l0 58 38 10 c57 15 57 15 111 -44z m2400 -34 c50 -16 108 -33 131 -36 36
-6 40 -9 40 -36 0 -16 -7 -42 -15 -57 -13 -27 -20 -29 -92 -36 -43 -3 -109 -1
-148 4 -70 11 -145 29 -145 35 0 15 52 112 71 132 29 31 50 30 158 -6z"/>
<path d="M1461 2948 c-52 -9 -125 -49 -164 -90 -59 -63 -109 -200 -123 -335
l-7 -63 75 0 75 0 7 51 c9 66 30 110 91 189 65 82 97 157 93 213 l-3 43 -44
-8z"/>
<path d="M2465 2745 c-114 -37 -209 -98 -288 -186 -60 -65 -132 -192 -121
-210 10 -16 96 -3 157 25 85 39 213 162 266 256 24 42 61 118 61 124 0 9 -30
6 -75 -9z"/>
<path d="M671 1905 c-53 -10 -83 -22 -109 -42 -62 -51 -57 -57 46 -50 122 9
236 38 377 97 33 14 -233 9 -314 -5z"/>
<path d="M1576 1879 l-30 -23 90 -28 c172 -54 295 -79 386 -80 48 0 95 5 105
11 15 9 11 10 -22 11 -61 1 -148 24 -275 75 -144 58 -213 67 -254 34z"/>
</g>
</svg>
